<?xml version="1.0" encoding="UTF-8" standalone="no"?>
<!-- Created with Inkscape (http://www.inkscape.org/) -->

<svg
   id="svg2"
   sodipodi:version="0.32"
   inkscape:version="1.4 (e7c3feb100, 2024-10-09)"
   width="200"
   height="200"
   sodipodi:docname="sbb-clock.svg"
   inkscape:output_extension="org.inkscape.output.svgz.inkscape"
   inkscape:export-filename="/home/pinheiro/server/svnserver/estilo/plasma/4.2/test/image601cc.png"
   inkscape:export-xdpi="90"
   inkscape:export-ydpi="90"
   version="1.0"
   xmlns:inkscape="http://www.inkscape.org/namespaces/inkscape"
   xmlns:sodipodi="http://sodipodi.sourceforge.net/DTD/sodipodi-0.dtd"
   xmlns:xlink="http://www.w3.org/1999/xlink"
   xmlns="http://www.w3.org/2000/svg"
   xmlns:svg="http://www.w3.org/2000/svg"
   xmlns:rdf="http://www.w3.org/1999/02/22-rdf-syntax-ns#"
   xmlns:cc="http://creativecommons.org/ns#"
   xmlns:dc="http://purl.org/dc/elements/1.1/">
  <sodipodi:namedview
     inkscape:window-height="869"
     inkscape:window-width="1620"
     inkscape:pageshadow="2"
     inkscape:pageopacity="1"
     guidetolerance="3"
     gridtolerance="4"
     objecttolerance="6"
     borderopacity="1.0"
     bordercolor="#666666"
     pagecolor="#b9c8e1"
     id="base"
     inkscape:zoom="6.5753231"
     inkscape:cx="92.999232"
     inkscape:cy="60.073094"
     inkscape:window-x="0"
     inkscape:window-y="0"
     inkscape:current-layer="svg2"
     showgrid="true"
     showguides="true"
     inkscape:guide-bbox="true"
     inkscape:window-maximized="0"
     inkscape:showpageshadow="2"
     inkscape:pagecheckerboard="0"
     inkscape:deskcolor="#d1d1d1">
    <inkscape:grid
       empspacing="5"
       enabled="true"
       visible="true"
       id="grid5592"
       type="xygrid"
       snapvisiblegridlinesonly="true"
       color="#0000ff"
       opacity="0.0392157"
       empcolor="#0000ff"
       empopacity="0.07843137"
       originx="0"
       originy="0"
       spacingy="1"
       spacingx="1"
       units="px" />
    <sodipodi:guide
       id="guide4454"
       position="1296.8644,-784.48024"
       orientation="1,0"
       inkscape:locked="false" />
    <sodipodi:guide
       id="guide7371"
       position="820.86441,-843.48024"
       orientation="0,1"
       inkscape:locked="false" />
  </sodipodi:namedview>
  <metadata
     id="metadata7">
    <rdf:RDF>
      <cc:Work
         rdf:about="">
        <dc:format>image/svg+xml</dc:format>
        <dc:type
           rdf:resource="http://purl.org/dc/dcmitype/StillImage" />
        <dc:title />
      </cc:Work>
    </rdf:RDF>
  </metadata>
  <style
     id="current-color-scheme"
     type="text/css">
      .ColorScheme-Text {
        color:#7B7C7E;
      }
      .ColorScheme-Background{
        color:#EFF0F1;
      }
      .ColorScheme-Highlight{
        color:#3DAEE6;
      }
      .ColorScheme-ViewText {
        color:#7B7C7E;
      }
      .ColorScheme-ViewBackground{
        color:#FCFCFC;
      }
      .ColorScheme-ViewHover {
        color:#3DAEE6;
      }
      .ColorScheme-ViewFocus{
        color:#1E92FF;
      }
      .ColorScheme-ButtonText {
        color:#7B7C7E;
      }
      .ColorScheme-ButtonBackground{
        color:#EFF0F1;
      }
      .ColorScheme-ButtonHover {
        color:#3DAEE6;
      }
      .ColorScheme-ButtonFocus{
        color:#1E92FF;
      }
  </style>
  <defs
     id="defs5">
    <linearGradient
       id="linearGradient4011">
      <stop
         style="stop-color:#232629;stop-opacity:1;"
         offset="0"
         id="stop4013" />
      <stop
         id="stop4019"
         offset="0.89999998"
         style="stop-color:#232629;stop-opacity:0.52348995;" />
      <stop
         style="stop-color:#232629;stop-opacity:0.10738255;"
         offset="0.95999998"
         id="stop4021" />
      <stop
         style="stop-color:#232629;stop-opacity:0;"
         offset="1"
         id="stop4015" />
    </linearGradient>
    <linearGradient
       id="linearGradient3264">
      <stop
         style="stop-color:#000000;stop-opacity:1;"
         offset="0"
         id="stop3266" />
      <stop
         id="stop3272"
         offset="0.68343294"
         style="stop-color:#000000;stop-opacity:0.49803922;" />
      <stop
         style="stop-color:#000000;stop-opacity:0.14117648;"
         offset="0.79985917"
         id="stop3274" />
      <stop
         id="stop3276"
         offset="0.89750695"
         style="stop-color:#000000;stop-opacity:0.03137255;" />
      <stop
         style="stop-color:#000000;stop-opacity:0;"
         offset="1"
         id="stop3268" />
    </linearGradient>
    <linearGradient
       id="linearGradient6617">
      <stop
         style="stop-color:#e7e7e7;stop-opacity:0;"
         offset="0"
         id="stop6619" />
      <stop
         id="stop6625"
         offset="0.89623755"
         style="stop-color:#f3f3f3;stop-opacity:1" />
      <stop
         style="stop-color:#e3e3e3;stop-opacity:0.99861372"
         offset="1"
         id="stop6621" />
    </linearGradient>
    <linearGradient
       id="linearGradient5995">
      <stop
         id="stop5997"
         offset="0"
         style="stop-color:#d7d7d7;stop-opacity:1;" />
      <stop
         id="stop5999"
         offset="1"
         style="stop-color:#ffffff;stop-opacity:1" />
    </linearGradient>
    <linearGradient
       id="linearGradient6876"
       inkscape:collect="always">
      <stop
         id="stop6878"
         offset="0"
         style="stop-color:#ffffff;stop-opacity:1;" />
      <stop
         id="stop6880"
         offset="1"
         style="stop-color:#ffffff;stop-opacity:0;" />
    </linearGradient>
    <linearGradient
       id="linearGradient6608">
      <stop
         id="stop6610"
         offset="0"
         style="stop-color:#ffffff;stop-opacity:1;" />
      <stop
         style="stop-color:#f0f0f0;stop-opacity:1;"
         offset="0.79710144"
         id="stop6617" />
      <stop
         id="stop6612"
         offset="1"
         style="stop-color:#e2e2e2;stop-opacity:1;" />
    </linearGradient>
    <linearGradient
       id="linearGradient6195"
       inkscape:collect="always">
      <stop
         id="stop6197"
         offset="0"
         style="stop-color:#ffffff;stop-opacity:1;" />
      <stop
         id="stop6199"
         offset="1"
         style="stop-color:#ffffff;stop-opacity:0;" />
    </linearGradient>
    <linearGradient
       id="linearGradient8518">
      <stop
         id="stop8520"
         offset="0"
         style="stop-color:#bd0000;stop-opacity:1;" />
      <stop
         style="stop-color:#ff4747;stop-opacity:1"
         offset="0.15470119"
         id="stop8522" />
      <stop
         id="stop8524"
         offset="0.94668281"
         style="stop-color:#9c0000;stop-opacity:1;" />
      <stop
         id="stop8526"
         offset="1"
         style="stop-color:#db0000;stop-opacity:1;" />
    </linearGradient>
    <linearGradient
       gradientUnits="userSpaceOnUse"
       y2="117.86208"
       x2="1155.6477"
       y1="283.88474"
       x1="1155.6477"
       id="linearGradient6203"
       xlink:href="#linearGradient6195"
       inkscape:collect="always" />
    <linearGradient
       gradientTransform="translate(-1027.6356,-20.896313)"
       y2="53.696342"
       x2="1133.3816"
       y1="21.651564"
       x1="1133.3816"
       gradientUnits="userSpaceOnUse"
       id="linearGradient6890"
       xlink:href="#linearGradient6876"
       inkscape:collect="always" />
    <radialGradient
       inkscape:collect="always"
       xlink:href="#linearGradient4011"
       id="radialGradient4471"
       gradientUnits="userSpaceOnUse"
       cx="1255.8716"
       cy="382.72916"
       fx="1255.8716"
       fy="382.72916"
       r="96.605507" />
    <linearGradient
       inkscape:collect="always"
       xlink:href="#swatch60"
       id="linearGradient62"
       gradientUnits="userSpaceOnUse"
       gradientTransform="matrix(1.1662469,0,0,1.1460958,-174.37301,-39.710879)"
       x1="-232.6087"
       y1="442.93481"
       x2="198.91306"
       y2="442.93481" />
    <linearGradient
       id="swatch60"
       inkscape:swatch="solid">
      <stop
         style="stop-color:#d5d5d5;stop-opacity:1;"
         offset="0"
         id="stop60" />
    </linearGradient>
    <clipPath
       id="clip1_0_2-6">
      <rect
         width="461.53799"
         height="459.23099"
         fill="#ffffff"
         transform="translate(168.077,70.3846)"
         id="rect55-2"
         x="0"
         y="0" />
    </clipPath>
    <mask
       id="mask1_0_2-9"
       maskUnits="userSpaceOnUse"
       x="170"
       y="71"
       width="459"
       height="459">
      <path
         fill-rule="evenodd"
         clip-rule="evenodd"
         d="m 399.298,71.1494 c -126.574,0 -229.18,102.6096 -229.18,229.1806 0,126.57 102.606,229.18 229.18,229.18 126.57,0 229.177,-102.61 229.177,-229.18 0,-126.571 -102.607,-229.1806 -229.177,-229.1806 m 0,439.4016 c -116.103,0 -210.224,-94.118 -210.224,-210.221 0,-116.104 94.121,-210.2245 210.224,-210.2245 116.1,0 210.221,94.1205 210.221,210.2245 0,116.103 -94.121,210.221 -210.221,210.221"
         fill="#ffffff"
         id="path1-1" />
    </mask>
    <mask
       id="mask2_0_2-2"
       maskUnits="userSpaceOnUse"
       x="170"
       y="71"
       width="458"
       height="458">
      <path
         fill-rule="evenodd"
         clip-rule="evenodd"
         d="m 399.298,71.9736 c -126.119,0 -228.356,102.2404 -228.356,228.3564 0,126.115 102.237,228.356 228.356,228.356 126.115,0 228.353,-102.241 228.353,-228.356 0,-126.116 -102.238,-228.3564 -228.353,-228.3564 z m 0,403.1404 c -96.531,0 -174.785,-78.254 -174.785,-174.784 0,-96.531 78.254,-174.785 174.785,-174.785 96.527,0 174.781,78.254 174.781,174.785 0,96.53 -78.254,174.784 -174.781,174.784 z"
         fill="#ffffff"
         id="path27-7" />
    </mask>
    <clipPath
       id="clip3_0_2">
      <rect
         width="145.38499"
         height="18.4615"
         fill="#ffffff"
         transform="translate(325,183.462)"
         id="rect57"
         x="0"
         y="0" />
    </clipPath>
  </defs>
  <g
     id="ClockFace"
     style="display:inline"
     transform="matrix(0.3479939,0,0,0.3479939,159.44663,-69.88923)">
    <g
       id="g62"
       transform="matrix(1.0449482,0,0,1.0449482,31.916058,-0.77170529)">
      <ellipse
         style="fill:url(#linearGradient62);fill-opacity:1;stroke:#000000;stroke-width:20;stroke-dasharray:none;stroke-opacity:1"
         id="circle62"
         cx="-194.02176"
         cy="467.93488"
         rx="251.63045"
         ry="247.28262" />
      <circle
         style="fill:#ffffff;fill-opacity:1;stroke:none;stroke-width:29.6409;stroke-dasharray:none;stroke-opacity:1"
         id="path62"
         cx="-194.02176"
         cy="467.93488"
         r="231.97241" />
    </g>
    <g
       id="g63"
       transform="translate(-465.70078,53.407011)">
      <g
         clip-path="url(#clip1_0_2-6)"
         id="g40"
         style="display:inline"
         transform="translate(-104.42235,134.4593)">
        <mask
           id="mask2"
           maskUnits="userSpaceOnUse"
           x="170"
           y="71"
           width="459"
           height="459">
          <path
             fill-rule="evenodd"
             clip-rule="evenodd"
             d="m 399.298,71.1494 c -126.574,0 -229.18,102.6096 -229.18,229.1806 0,126.57 102.606,229.18 229.18,229.18 126.57,0 229.177,-102.61 229.177,-229.18 0,-126.571 -102.607,-229.1806 -229.177,-229.1806 m 0,439.4016 c -116.103,0 -210.224,-94.118 -210.224,-210.221 0,-116.104 94.121,-210.2245 210.224,-210.2245 116.1,0 210.221,94.1205 210.221,210.2245 0,116.103 -94.121,210.221 -210.221,210.221"
             fill="#ffffff"
             id="path2" />
        </mask>
        <g
           mask="url(#mask1_0_2-9)"
           id="g26"
           style="display:inline">
          <path
             fill-rule="evenodd"
             clip-rule="evenodd"
             d="m 301.877,90.6461 6.719,-2.9934 188.119,422.3603 -6.718,2.994 -188.12,-422.3609"
             fill="#000000"
             id="path3" />
          <path
             fill-rule="evenodd"
             clip-rule="evenodd"
             d="m 325.336,81.267 7.006,-2.2417 140.914,440.3667 -7.005,2.242 L 325.336,81.267"
             fill="#000000"
             id="path4" />
          <path
             fill-rule="evenodd"
             clip-rule="evenodd"
             d="m 347.632,74.967 7.193,-1.5296 96.139,452.2546 -7.197,1.53 -96.135,-452.255"
             fill="#000000"
             id="path5" />
          <path
             fill-rule="evenodd"
             clip-rule="evenodd"
             d="m 370.29,70.9451 7.312,-0.8077 50.7,459.5766 -7.312,0.805 -50.7,-459.5739"
             fill="#000000"
             id="path6" />
          <path
             fill-rule="evenodd"
             clip-rule="evenodd"
             d="m 420.44,70.0879 7.312,0.7879 -49.596,459.6952 -7.315,-0.787 49.599,-459.6961"
             fill="#000000"
             id="path7" />
          <path
             fill-rule="evenodd"
             clip-rule="evenodd"
             d="m 445.432,73.767 7.183,1.5824 -99.455,451.5426 -7.183,-1.582 99.455,-451.543"
             fill="#000000"
             id="path8" />
          <path
             fill-rule="evenodd"
             clip-rule="evenodd"
             d="m 467.876,79.5231 6.989,2.2945 L 330.72,521.136 323.731,518.842 467.876,79.5231"
             fill="#000000"
             id="path9" />
          <path
             fill-rule="evenodd"
             clip-rule="evenodd"
             d="m 489.486,87.4352 6.728,2.9769 -187.107,422.8119 -6.726,-2.977 187.105,-422.8118"
             fill="#000000"
             id="path10" />
          <path
             fill-rule="evenodd"
             clip-rule="evenodd"
             d="m 532.785,111.547 5.937,4.342 -272.914,373.223 -5.938,-4.342 272.915,-373.223"
             fill="#000000"
             id="path11" />
          <path
             fill-rule="evenodd"
             clip-rule="evenodd"
             d="m 552.585,127.236 5.429,4.965 -312.006,341.222 -5.427,-4.965 312.004,-341.222"
             fill="#000000"
             id="path12" />
          <path
             fill-rule="evenodd"
             clip-rule="evenodd"
             d="m 569.137,143.446 4.906,5.483 -344.588,308.284 -4.906,-5.482 344.588,-308.285"
             fill="#000000"
             id="path13" />
          <path
             fill-rule="evenodd"
             clip-rule="evenodd"
             d="m 583.893,161.11 4.336,5.941 -373.53,272.498 -4.335,-5.944 373.529,-272.495"
             fill="#000000"
             id="path14" />
          <path
             fill-rule="evenodd"
             clip-rule="evenodd"
             d="m 583.893,161.11 4.336,5.941 -373.53,272.498 -4.335,-5.944 373.529,-272.495"
             fill="#000000"
             id="path15" />
          <path
             fill-rule="evenodd"
             clip-rule="evenodd"
             d="m 609.99,205.111 2.921,6.748 L 188.606,395.548 185.681,388.8 609.99,205.111"
             fill="#000000"
             id="path16" />
          <path
             fill-rule="evenodd"
             clip-rule="evenodd"
             d="m 619.122,228.666 2.166,7.029 -441.814,136.298 -2.17,-7.028 441.818,-136.299"
             fill="#000000"
             id="path17" />
          <path
             fill-rule="evenodd"
             clip-rule="evenodd"
             d="m 625.188,251.024 1.454,7.21 -453.238,91.401 -1.453,-7.21 453.237,-91.401"
             fill="#000000"
             id="path18" />
          <path
             fill-rule="evenodd"
             clip-rule="evenodd"
             d="m 628.973,273.725 0.728,7.319 -460.078,45.89 -0.732,-7.319 460.082,-45.89"
             fill="#000000"
             id="path19" />
          <path
             fill-rule="evenodd"
             clip-rule="evenodd"
             d="m 629.306,323.878 -0.868,7.306 -459.148,-54.406 0.864,-7.302 459.152,54.402"
             fill="#000000"
             id="path20" />
          <path
             fill-rule="evenodd"
             clip-rule="evenodd"
             d="m 625.363,348.834 -1.659,7.164 -450.474,-104.173 1.658,-7.163 450.475,104.172"
             fill="#000000"
             id="path21" />
          <path
             fill-rule="evenodd"
             clip-rule="evenodd"
             d="m 619.373,371.215 -2.364,6.963 -437.789,-148.734 2.367,-6.963 437.786,148.734"
             fill="#000000"
             id="path22" />
          <path
             fill-rule="evenodd"
             clip-rule="evenodd"
             d="m 611.236,392.743 -3.046,6.692 -420.834,-191.519 3.049,-6.695 420.831,191.522"
             fill="#000000"
             id="path23" />
          <path
             fill-rule="evenodd"
             clip-rule="evenodd"
             d="m 586.673,435.788 -4.405,5.891 -370.348,-276.808 4.404,-5.891 370.349,276.808"
             fill="#000000"
             id="path24" />
          <path
             fill-rule="evenodd"
             clip-rule="evenodd"
             d="m 570.776,455.42 -5.021,5.377 -337.939,-315.557 5.021,-5.377 337.939,315.557"
             fill="#000000"
             id="path25" />
          <path
             fill-rule="evenodd"
             clip-rule="evenodd"
             d="m 554.395,471.804 -5.536,4.847 -304.658,-347.796 5.532,-4.846 304.662,347.795"
             fill="#000000"
             id="path26" />
          <path
             fill-rule="evenodd"
             clip-rule="evenodd"
             d="m 536.576,486.373 -5.987,4.272 -268.573,-376.358 5.987,-4.273 268.573,376.359"
             fill="#000000"
             id="path28" />
        </g>
        <mask
           id="mask29"
           maskUnits="userSpaceOnUse"
           x="170"
           y="71"
           width="458"
           height="458">
          <path
             fill-rule="evenodd"
             clip-rule="evenodd"
             d="m 399.298,71.9736 c -126.119,0 -228.356,102.2404 -228.356,228.3564 0,126.115 102.237,228.356 228.356,228.356 126.115,0 228.353,-102.241 228.353,-228.356 0,-126.116 -102.238,-228.3564 -228.353,-228.3564 z m 0,403.1404 c -96.531,0 -174.785,-78.254 -174.785,-174.784 0,-96.531 78.254,-174.785 174.785,-174.785 96.527,0 174.781,78.254 174.781,174.785 0,96.53 -78.254,174.784 -174.781,174.784 z"
             fill="#ffffff"
             id="path29" />
        </mask>
        <g
           mask="url(#mask2_0_2-2)"
           id="g39"
           style="display:inline">
          <path
             fill-rule="evenodd"
             clip-rule="evenodd"
             d="m 395.629,71.9736 h 7.355 V 528.682 h -7.355 z"
             fill="#000000"
             id="path30" />
          <path
             fill-rule="evenodd"
             clip-rule="evenodd"
             d="m 390.68,71.9736 h 17.249 V 528.682 H 390.68 Z"
             fill="#000000"
             id="path31" />
          <path
             fill-rule="evenodd"
             clip-rule="evenodd"
             d="m 170.942,296.654 h 456.709 v 7.355 H 170.942 Z"
             fill="#000000"
             id="path32" />
          <path
             fill-rule="evenodd"
             clip-rule="evenodd"
             d="m 170.942,291.709 h 456.709 v 17.242 H 170.942 Z"
             fill="#000000"
             id="path33" />
          <path
             fill-rule="evenodd"
             clip-rule="evenodd"
             d="m 516.805,101.202 -6.392,-3.6361 -228.61,401.8911 6.396,3.636 228.606,-401.891"
             fill="#000000"
             id="path34" />
          <path
             fill-rule="evenodd"
             clip-rule="evenodd"
             d="M 290.052,509.835 275.058,501.313 508.557,90.8242 523.551,99.3462 290.052,509.835"
             fill="#000000"
             id="path35" />
          <path
             fill-rule="evenodd"
             clip-rule="evenodd"
             d="m 601.709,188.565 -3.66,-6.383 -401.146,229.913 3.656,6.382 401.15,-229.912"
             fill="#000000"
             id="path36" />
          <path
             fill-rule="evenodd"
             clip-rule="evenodd"
             d="m 198.73,425.225 -8.575,-14.96 409.727,-234.831 8.572,14.961 -409.724,234.83"
             fill="#000000"
             id="path37" />
          <path
             fill-rule="evenodd"
             clip-rule="evenodd"
             d="m 286.58,98.4593 -6.366,3.6887 231.818,400.052 6.363,-3.689 L 286.58,98.4593"
             fill="#000000"
             id="path38" />
          <path
             fill-rule="evenodd"
             clip-rule="evenodd"
             d="M 510.232,508.955 273.459,100.348 288.377,91.7044 525.153,500.311 510.232,508.955"
             fill="#000000"
             id="path39" />
          <path
             fill-rule="evenodd"
             clip-rule="evenodd"
             d="m 198.426,185.845 3.745,-6.333 398.011,235.302 -3.745,6.333 -398.011,-235.302"
             fill="#000000"
             id="path40" />
          <path
             fill-rule="evenodd"
             clip-rule="evenodd"
             d="m 598.178,427.919 -406.526,-240.33 8.782,-14.848 406.523,240.329 -8.779,14.849"
             fill="#000000"
             id="path41" />
        </g>
      </g>
      <g
         clip-path="url(#clip3_0_2)"
         id="g49"
         style="display:inline"
         transform="translate(-104.42235,134.4593)">
        <path
           fill-rule="evenodd"
           clip-rule="evenodd"
           d="m 326.098,200.802 3.329,-17.057 5.522,12.323 5.569,-12.323 2.996,17.057 h -2.472 l -1.619,-9.564 -4.619,10.303 -4.566,-10.326 -1.664,9.587 h -2.476"
           fill="#000000"
           id="path42" />
        <path
           fill-rule="evenodd"
           clip-rule="evenodd"
           d="m 365.906,192.88 c 0,4.662 -3.502,8.232 -8.259,8.232 -4.757,0 -8.255,-3.57 -8.255,-8.232 0,-4.665 3.498,-8.232 8.255,-8.232 4.757,0 8.259,3.567 8.259,8.232 z m -2.427,0 c 0,-3.521 -2.43,-5.996 -5.832,-5.996 -3.402,0 -5.828,2.475 -5.828,5.996 0,3.524 2.426,5.997 5.828,5.997 3.402,0 5.832,-2.473 5.832,-5.997 z"
           fill="#000000"
           id="path43" />
        <path
           fill-rule="evenodd"
           clip-rule="evenodd"
           d="m 372.262,200.802 v -16.938 l 11.515,12.062 v -10.994 h 2.426 v 16.846 l -11.515,-12.063 v 11.087 h -2.426"
           fill="#000000"
           id="path44" />
        <path
           fill-rule="evenodd"
           clip-rule="evenodd"
           d="m 396.654,184.932 c 2.212,0 4.14,0.237 5.901,1.549 1.925,1.451 3.046,3.759 3.046,6.399 0,2.641 -1.094,4.926 -3.191,6.402 -1.853,1.306 -3.594,1.52 -5.806,1.52 h -3.283 v -15.87 z m -0.903,13.586 h 1.045 c 1.19,0 2.831,-0.093 4.209,-1.118 1.095,-0.834 2.17,-2.357 2.17,-4.52 0,-2.093 -0.999,-3.735 -2.143,-4.569 -1.381,-0.996 -3.073,-1.091 -4.236,-1.091 h -1.045 z"
           fill="#000000"
           id="path45" />
        <path
           fill-rule="evenodd"
           clip-rule="evenodd"
           d="m 420.809,196.971 h -6.778 l -1.738,3.831 h -2.617 l 7.899,-16.796 7.52,16.796 h -2.618 z m -0.976,-2.281 -2.354,-5.38 -2.453,5.38 z"
           fill="#000000"
           id="path46" />
        <path
           fill-rule="evenodd"
           clip-rule="evenodd"
           d="m 430.402,184.932 h 2.427 v 15.87 h -2.427 z"
           fill="#000000"
           id="path47" />
        <path
           fill-rule="evenodd"
           clip-rule="evenodd"
           d="m 439.959,200.802 v -16.938 l 11.516,12.062 v -10.994 h 2.426 v 16.846 l -11.515,-12.063 v 11.087 h -2.427"
           fill="#000000"
           id="path48" />
        <path
           fill-rule="evenodd"
           clip-rule="evenodd"
           d="m 469.778,187.22 h -6.33 v 4.018 h 6.139 v 2.285 h -6.139 v 4.995 h 6.33 v 2.284 h -8.759 v -15.87 h 8.759 v 2.288"
           fill="#000000"
           id="path49" />
      </g>
      <path
         fill-rule="evenodd"
         clip-rule="evenodd"
         d="m 281.27365,349.6583 c -0.109,-0.92 -0.653,-1.335 -1.744,-1.335 -0.937,0 -1.517,0.405 -1.517,1.051 0,0.544 0.366,0.867 1.111,1.003 l 1.619,0.283 c 1.734,0.297 2.664,1.217 2.664,2.624 0,1.771 -1.435,2.905 -3.703,2.905 -2.406,0 -3.784,-1.164 -3.827,-3.205 h 1.922 c 0.122,1.177 0.702,1.678 1.984,1.678 0.989,0 1.692,-0.514 1.692,-1.229 0,-0.571 -0.379,-0.92 -1.108,-1.055 l -1.474,-0.271 c -1.879,-0.352 -2.746,-1.163 -2.746,-2.611 0,-1.648 1.325,-2.703 3.488,-2.703 2.123,0 3.435,1.068 3.488,2.865 z m 7.542,-2.674 c 1.972,0 3.093,0.838 3.093,2.298 0,0.798 -0.376,1.391 -1.256,1.853 1.121,0.419 1.595,1.121 1.595,2.284 0,1.58 -1.243,2.582 -3.217,2.582 h -4.243 v -9.017 z m -0.273,3.61 c 0.962,0 1.516,-0.379 1.516,-1.015 0,-0.729 -0.501,-1.068 -1.543,-1.068 h -1.836 v 2.083 z m 0.082,3.88 c 1.121,0 1.678,-0.395 1.678,-1.203 0,-0.854 -0.544,-1.233 -1.773,-1.233 h -1.85 v 2.436 z m 9.086,-7.49 c 1.971,0 3.092,0.838 3.092,2.298 0,0.798 -0.376,1.391 -1.256,1.853 1.121,0.419 1.596,1.121 1.596,2.284 0,1.58 -1.243,2.582 -3.218,2.582 h -4.285 v -9.017 z m -0.274,3.61 c 0.963,0 1.517,-0.379 1.517,-1.015 0,-0.729 -0.501,-1.068 -1.543,-1.068 h -1.876 v 2.083 z m 0.083,3.88 c 1.121,0 1.678,-0.395 1.678,-1.203 0,-0.854 -0.544,-1.233 -1.774,-1.233 h -1.889 v 2.436 z"
         fill="#292526"
         id="path50"
         style="display:inline" />
      <path
         fill-rule="evenodd"
         clip-rule="evenodd"
         d="m 312.99765,352.8233 c -0.135,2.07 -1.649,3.366 -3.92,3.366 -2.542,0 -4.216,-1.85 -4.216,-4.678 0,-2.812 1.717,-4.718 4.259,-4.718 2.176,0 3.633,1.207 3.798,3.112 h -1.879 c -0.218,-1.028 -0.854,-1.53 -1.906,-1.53 -1.434,0 -2.367,1.217 -2.367,3.122 0,1.88 0.92,3.126 2.324,3.126 1.164,0 1.81,-0.571 2.014,-1.8 z m 3.217,-4.217 v 2.12 h 4.003 v 1.569 h -4.003 v 3.706 h -1.892 v -9.017 h 6.287 v 1.622 z m 7.926,0 v 2.12 h 4.051 v 1.569 h -4.051 v 3.706 h -1.896 v -9.017 h 6.343 v 1.622 z"
         fill="#292526"
         id="path51"
         style="display:inline" />
      <path
         fill-rule="evenodd"
         clip-rule="evenodd"
         d="m 334.77565,348.6063 v 2.12 h 4.055 v 1.569 h -4.055 v 3.706 h -1.889 v -9.017 h 6.336 v 1.622 z m 8.017,0 v 2.12 h 4.029 v 1.569 h -4.029 v 3.706 h -1.895 v -9.017 h 6.316 v 1.622 z m 10.909,1.052 c -0.109,-0.92 -0.649,-1.335 -1.744,-1.335 -0.933,0 -1.513,0.405 -1.513,1.051 0,0.544 0.366,0.867 1.108,1.003 l 1.622,0.283 c 1.73,0.297 2.663,1.217 2.663,2.624 0,1.771 -1.434,2.905 -3.705,2.905 -2.407,0 -3.785,-1.164 -3.824,-3.205 h 1.918 c 0.119,1.177 0.703,1.678 1.985,1.678 0.989,0 1.691,-0.514 1.691,-1.229 0,-0.571 -0.379,-0.92 -1.107,-1.055 l -1.474,-0.271 c -1.879,-0.352 -2.743,-1.163 -2.743,-2.611 0,-1.648 1.322,-2.703 3.485,-2.703 2.123,0 3.438,1.068 3.491,2.865 z"
         fill="#292526"
         id="path52"
         style="display:inline" />
      <path
         fill-rule="evenodd"
         clip-rule="evenodd"
         d="m 233.07865,344.8353 h 38.634 v 12.883 h -38.634 z"
         fill="#ed232a"
         id="path53"
         style="display:inline" />
      <path
         fill-rule="evenodd"
         clip-rule="evenodd"
         d="m 256.67965,355.5693 h 2.502 l -3.366,-3.3 h 4.177 v 3.3 h 1.975 v -3.3 h 4.177 l -3.366,3.3 h 2.502 l 4.283,-4.286 -4.283,-4.299 h -2.502 l 3.366,3.313 h -4.177 v -3.313 h -1.975 v 3.313 h -4.177 l 3.366,-3.313 h -2.502 l -4.282,4.299 4.282,4.286"
         fill="#ffffff"
         id="path54"
         style="display:inline" />
    </g>
    <path
       style="font-size:12.2504px;stroke:#7f7f7f;stroke-width:0.511503;stroke-dasharray:none;stroke-opacity:1"
       d="m -258.37887,708.03881 q -0.49502,1.26649 -1.29874,2.04404 -0.78786,0.7706 -1.82592,0.9699 -1.03806,0.1993 -2.27032,-0.28234 -1.26649,-0.49502 -1.90567,-1.34988 -0.62778,-0.85041 -0.66838,-1.95797 -0.0406,-1.10756 0.45441,-2.37405 0.49056,-1.25508 1.267,-2.03014 0.77645,-0.77506 1.81451,-0.97436 1.04947,-0.19484 2.32737,0.30464 1.22085,0.47718 1.84862,1.32758 0.63224,0.839 0.68425,1.95102 0.0679,1.10507 -0.42713,2.37156 z m -6.43514,-2.51523 q -0.60205,1.54033 -0.29954,2.68449 0.30697,1.13276 1.68755,1.67237 1.392,0.54408 2.37434,-0.0847 0.9868,-0.64023 1.58885,-2.18055 0.60205,-1.54033 0.30203,-2.65722 -0.29556,-1.12829 -1.67614,-1.66791 -1.38059,-0.53961 -2.38575,0.0803 -0.98929,0.61295 -1.59134,2.15327 z m 7.69932,7.6238 -1.03793,-0.37188 2.95027,-8.23421 4.60147,1.64868 -0.32643,0.91107 -3.56355,-1.2768 -1.0454,2.91773 3.34443,1.19828 -0.32643,0.91107 -3.34443,-1.19829 z m 6.00269,2.09461 -1.04627,-0.34771 2.75846,-8.30043 4.63848,1.5415 -0.30521,0.91839 -3.5922,-1.19379 -0.97744,2.94119 3.37132,1.12038 -0.30521,0.9184 -3.37132,-1.12039 z m 7.34906,2.35649 -3.0181,-0.93835 0.18912,-0.6083 1.05174,0.0833 2.07675,-6.67959 -0.9099,-0.53947 0.18913,-0.6083 3.01809,0.93836 -0.18912,0.60829 -1.05538,-0.0716 -2.07674,6.67959 0.91353,0.52777 z m 7.39764,-6.06646 q -1.35424,-0.38824 -2.39141,0.29569 -1.03717,0.68394 -1.48956,2.26193 -0.449,1.56621 0.006,2.69068 0.47016,1.11607 1.91861,1.53131 0.55347,0.15868 1.07507,0.20626 0.52161,0.0476 1.03316,0.0413 l -0.26333,0.91853 q -0.52168,0.0416 -1.05168,-0.0211 -0.51823,-0.0594 -1.21301,-0.25855 -1.28359,-0.36798 -1.99132,-1.14435 -0.70773,-0.77637 -0.86324,-1.87869 -0.14373,-1.09895 0.23439,-2.41786 0.3646,-1.27182 1.1007,-2.10579 0.75125,-0.84237 1.8133,-1.12411 1.06543,-0.29352 2.36079,0.0778 1.33069,0.38149 2.17809,1.15967 l -0.68052,0.77344 q -0.33797,-0.28805 -0.78027,-0.56777 -0.43053,-0.27636 -0.99578,-0.4384 z m 4.05523,9.2763 -3.05701,-0.80255 0.16176,-0.61614 1.0544,0.0362 1.77618,-6.76572 -0.93309,-0.49827 0.16175,-0.61614 3.05702,0.80254 -0.16176,0.61615 -1.05752,-0.0243 -1.77618,6.76572 0.93621,0.48642 z m 6.97595,1.6954 -0.39749,-2.87778 -3.3725,-0.80337 -1.6403,2.39236 -1.08445,-0.25833 5.36021,-7.75245 0.96527,0.22994 1.27754,9.33363 z m -0.83234,-6.70895 q -0.013,-0.10385 -0.0368,-0.37398 -0.0238,-0.27012 -0.0448,-0.55217 -0.006,-0.29112 -0.0198,-0.44548 -0.17142,0.34956 -0.36384,0.68152 -0.18957,0.32004 -0.30933,0.50559 l -1.57844,2.34413 2.69323,0.64155 z m 3.11827,7.21021 1.79238,-8.56117 1.07914,0.22593 -1.59155,7.60193 3.74102,0.78323 -0.20083,0.95923 z m 13.24955,-6.35397 q 1.60676,0.2701 2.26428,1.01417 0.67163,0.73402 0.46449,1.96628 -0.11576,0.68861 -0.44664,1.10503 -0.33087,0.41643 -0.77625,0.62727 -0.43126,0.20079 -0.89258,0.28473 l 1.71798,4.26394 -1.26849,-0.21325 -1.49089,-3.9152 -1.71549,-0.28838 -0.5991,3.56386 -1.08728,-0.18278 1.45004,-8.62575 z m -0.21881,0.93215 -1.23225,-0.20714 -0.53818,3.20143 1.29265,0.2173 q 1.05104,0.17669 1.60333,-0.15283 0.55431,-0.34159 0.69038,-1.15101 0.14216,-0.84566 -0.30634,-1.28131 -0.44647,-0.44772 -1.50959,-0.62644 z m 9.34682,9.26746 -0.67649,-2.82524 -3.43481,-0.47035 -1.39896,2.54104 -1.10448,-0.15125 4.57792,-8.23862 0.98311,0.13462 2.18246,9.16436 z m -1.48321,-6.59567 q -0.0231,-0.10208 -0.0732,-0.3686 -0.0501,-0.26651 -0.0985,-0.54516 -0.0346,-0.28913 -0.0632,-0.44142 -0.13648,0.36462 -0.29558,0.71377 -0.15743,0.33702 -0.25851,0.53338 l -1.3421,2.487 2.743,0.37561 z m 6.25457,7.13949 -3.14069,-0.35423 0.0714,-0.63301 1.04864,-0.11596 0.78398,-6.9509 -0.99509,-0.3588 0.0714,-0.63301 3.14069,0.35424 -0.0714,0.63301 -1.05001,0.12813 -0.78399,6.9509 0.99647,0.34663 z m 1.68156,0.17557 0.80107,-8.71002 1.09791,0.10097 -0.71132,7.73411 3.80606,0.35005 -0.0898,0.97591 z m 16.68004,-7.58963 -2.82625,8.59861 -1.11294,-0.064 -1.37061,-5.82154 q -0.0774,-0.36031 -0.15487,-0.72061 -0.0774,-0.36031 -0.12309,-0.63289 -0.045,-0.28481 -0.0631,-0.39629 -0.0214,0.15829 -0.17395,0.67714 -0.13963,0.50734 -0.34323,1.06007 l -1.97834,5.59201 -1.11295,-0.064 -1.80898,-8.86536 1.14964,0.0662 1.05069,5.41047 q 0.11438,0.57104 0.18196,1.10256 0.0798,0.53223 0.11421,1.0005 0.0886,-0.47346 0.24328,-1.02901 0.15468,-0.55555 0.34464,-1.08452 l 1.84434,-5.18253 1.1374,0.0655 1.2967,5.40009 q 0.13885,0.57244 0.22878,1.14207 0.0906,0.55739 0.12714,0.98897 0.0872,-0.449 0.22753,-0.96856 0.14104,-0.5318 0.32088,-1.09817 l 1.65148,-5.2427 z m 5.84584,8.82104 -0.99576,-2.72911 -3.46608,-0.0737 -1.09859,2.6846 -1.11453,-0.0237 3.60374,-8.70893 0.99206,0.0211 3.21819,8.85393 z m -2.2292,-6.38227 q -0.0347,-0.0988 -0.11493,-0.35778 -0.0803,-0.25902 -0.16027,-0.53029 -0.0675,-0.28326 -0.11337,-0.43127 -0.0938,0.37785 -0.21184,0.74294 -0.11778,0.35284 -0.19569,0.55948 l -1.04829,2.62441 2.76797,0.0588 z m 6.08198,1.91866 2.24799,-4.31596 1.18826,-0.008 -2.87752,5.37398 0.0241,3.39328 -1.10251,0.008 -0.0237,-3.34428 -2.95387,-5.38159 1.2005,-0.009 z m 9.56172,1.8685 q 0.0405,1.16309 -0.78171,1.84136 -0.82219,0.67828 -2.25462,0.72813 -0.73457,0.0256 -1.3628,-0.0629 -0.62823,-0.0884 -1.05131,-0.26985 l -0.0366,-1.0529 q 0.44757,0.18055 1.10198,0.31713 0.66666,0.13615 1.36451,0.11186 0.97944,-0.0341 1.45595,-0.43066 0.48876,-0.397 0.46618,-1.04588 -0.0149,-0.4285 -0.20878,-0.71594 -0.19387,-0.28744 -0.65539,-0.51654 -0.44969,-0.24176 -1.25528,-0.49566 -1.12818,-0.36525 -1.72405,-0.93288 -0.58363,-0.56807 -0.61899,-1.58424 -0.0243,-0.69785 0.31372,-1.19992 0.33758,-0.51432 0.9526,-0.8054 0.62726,-0.2915 1.44754,-0.32004 0.72234,-0.0251 1.32693,0.0887 0.60459,0.11379 1.10198,0.31712 l -0.31,0.95464 q -0.4598,-0.18012 -1.00318,-0.29605 -0.53114,-0.11635 -1.10656,-0.0963 -0.82028,0.0285 -1.22418,0.39807 -0.40434,0.35729 -0.38431,0.93271 0.0153,0.44075 0.20921,0.72819 0.19387,0.28744 0.61822,0.50557 0.42436,0.21814 1.14383,0.46277 0.78111,0.25475 1.31906,0.56699 0.54977,0.29957 0.83488,0.74318 0.29735,0.4432 0.32121,1.1288 z m 8.15291,-6.10751 q -1.4046,0.1086 -2.13801,1.1114 -0.7334,1.0028 -0.60686,2.63947 0.12559,1.62445 0.9443,2.51954 0.82998,0.88192 2.33229,0.76577 0.57406,-0.0444 1.07949,-0.18176 0.50543,-0.13737 0.98266,-0.32171 l 0.0737,0.95269 q -0.47439,0.22098 -0.99298,0.34708 -0.50637,0.12516 -1.227,0.18088 -1.33132,0.10293 -2.26543,-0.37776 -0.93411,-0.48069 -1.46441,-1.45951 -0.51808,-0.97976 -0.62384,-2.34773 -0.10199,-1.3191 0.29692,-2.35748 0.41018,-1.05153 1.30721,-1.68608 0.89609,-0.64677 2.23963,-0.75065 1.38017,-0.1067 2.44581,0.32696 l -0.36794,0.96225 q -0.41722,-0.15204 -0.92933,-0.25989 -0.49989,-0.1088 -1.08616,-0.0635 z m 4.58548,7.52568 -0.92165,-8.69809 1.0964,-0.11617 0.81838,7.72351 3.80085,-0.40274 0.10327,0.97458 z m 13.09828,-6.05432 q 0.18684,1.34689 -0.13455,2.418 -0.31093,1.05728 -1.1193,1.73833 -0.80837,0.68106 -2.11886,0.86285 -1.3469,0.18684 -2.32226,-0.24677 -0.96323,-0.43529 -1.53977,-1.38183 -0.57654,-0.94654 -0.76339,-2.29344 -0.18516,-1.33476 0.11365,-2.39036 0.2988,-1.05561 1.10716,-1.73666 0.8205,-0.68273 2.17954,-0.87126 1.29835,-0.18011 2.26158,0.25518 0.96155,0.42316 1.55022,1.36802 0.59913,0.93104 0.78598,2.27794 z m -6.84369,0.94936 q 0.22724,1.63812 1.05018,2.48864 0.82127,0.83839 2.2895,0.63471 1.48038,-0.20536 2.03028,-1.23395 0.54822,-1.04074 0.32098,-2.67885 -0.22725,-1.63812 -1.03469,-2.46606 -0.80913,-0.84007 -2.27737,-0.63639 -1.46823,0.20368 -2.04241,1.23564 -0.56372,1.01815 -0.33647,2.65626 z m 11.68323,-5.35938 q -1.38763,0.2433 -2.0211,1.31204 -0.63347,1.06874 -0.34998,2.68563 0.28138,1.60482 1.18245,2.41694 0.91102,0.79794 2.39518,0.53772 0.56711,-0.0994 1.05697,-0.28483 0.48987,-0.18539 0.94713,-0.41481 l 0.16502,0.94118 q -0.45092,0.26562 -0.95496,0.44105 -0.49198,0.17333 -1.20389,0.29815 -1.31523,0.2306 -2.29128,-0.15794 -0.97604,-0.38854 -1.59809,-1.31177 -0.60999,-0.92534 -0.84694,-2.27677 -0.22849,-1.30316 0.0686,-2.37511 0.30705,-1.08613 1.13884,-1.80409 0.82967,-0.73002 2.15697,-0.96274 1.3635,-0.23907 2.46592,0.09 l -0.27359,0.99321 q -0.42993,-0.11118 -0.95004,-0.16924 -0.50804,-0.0602 -1.08722,0.0414 z m 11.55029,5.7499 -1.27121,0.26503 -3.8867,-3.45689 -0.71544,0.95004 0.69257,3.32193 -1.07933,0.22503 -1.78518,-8.56268 1.07933,-0.22502 0.88009,4.22138 q 0.27477,-0.48276 0.56153,-0.96801 0.28676,-0.48526 0.57352,-0.97051 l 1.7745,-3.07294 1.25922,-0.26253 -2.61631,4.43726 z m 9.91839,-7.08593 q 0.55777,2.14602 -0.33251,3.5419 -0.8815,1.38093 -2.96824,1.9233 l -2.35944,0.61325 -2.20028,-8.46552 2.60842,-0.67796 q 1.2805,-0.33282 2.34042,-0.10201 1.05993,0.23081 1.81013,1.02311 0.74711,0.78043 1.1015,2.14393 z m -1.11712,0.32832 q -0.44068,-1.69547 -1.48587,-2.2592 -1.03643,-0.57867 -2.56591,-0.18114 l -1.38721,0.36055 1.72572,6.63962 1.15008,-0.29892 q 3.43837,-0.89367 2.56319,-4.26091 z m 8.783048,2.05118 -4.685298,1.39269 -2.49219,-8.38423 4.6853,-1.39269 0.27575,0.92767 -3.62847,1.07855 0.77837,2.6186 3.4171,-1.01572 0.272257,0.91592 -3.417097,1.01573 0.89006,2.99436 3.628472,-1.07855 z m 5.805267,-4.364 q 0.366069,1.10472 -0.232075,1.98691 -0.598145,0.8822 -1.958689,1.33304 -0.697715,0.2312 -1.325453,0.32307 -0.627737,0.0919 -1.084763,0.0368 l -0.331389,-1.00006 q 0.480283,0.0473 1.146692,-0.006 0.678037,-0.0569 1.340866,-0.27655 0.930286,-0.30827 1.275976,-0.82289 0.357317,-0.51847 0.15309,-1.13479 -0.134868,-0.407 -0.401777,-0.62828 -0.26691,-0.22129 -0.774234,-0.31129 -0.49955,-0.10548 -1.344035,-0.12247 -1.185362,-0.0331 -1.916866,-0.41015 -0.719876,-0.38091 -1.039705,-1.34609 -0.219641,-0.66283 -0.03655,-1.23972 0.179241,-0.58852 0.687525,-1.04087 0.519912,-0.4562 1.299027,-0.71437 0.686087,-0.22735 1.298274,-0.28825 0.612187,-0.0609 1.146691,-0.006 l -0.02889,1.00329 q -0.491911,-0.0435 -1.045955,-0.002 -0.542416,0.0378 -1.08896,0.21889 -0.779115,0.25818 -1.062739,0.72642 -0.287478,0.45661 -0.10637,1.00316 0.138721,0.41863 0.40563,0.63991 0.266909,0.22129 0.735495,0.31122 0.468585,0.0899 1.227817,0.12226 0.821228,0.0247 1.425298,0.17297 0.611844,0.1328 1.010247,0.47828 0.410032,0.34163 0.62582,0.99283 z m 4.71283,0.78559 -2.973061,1.07253 -0.216169,-0.59922 0.888989,-0.56814 -2.373698,-6.57992 -1.051115,0.11873 -0.216168,-0.59922 2.973061,-1.07253 0.216168,0.59922 -0.884831,0.57966 2.373698,6.57992 1.046958,-0.13025 z m 3.408821,-6.27255 2.809035,-1.12476 1.593789,3.98041 q -0.573091,0.48019 -1.203092,0.85121 -0.630001,0.37102 -1.482947,0.71255 -1.26236,0.50546 -2.32704,0.35114 -1.069234,-0.16568 -1.897541,-0.91609 -0.821487,-0.76633 -1.336053,-2.05144 -0.510013,-1.27373 -0.38302,-2.40665 0.126993,-1.13291 0.854631,-2.01808 0.734457,-0.9011 2.065053,-1.43388 0.682356,-0.27322 1.335195,-0.38947 0.664211,-0.1208 1.278425,-0.10281 l -0.03148,1.04189 q -0.509572,-0.0203 -1.110102,0.0618 -0.589156,0.0775 -1.16916,0.30979 -1.455694,0.58287 -1.923888,1.78642 -0.456822,1.19901 0.153372,2.72294 0.387063,0.96667 0.994667,1.59431 0.614422,0.61172 1.453892,0.76384 0.834917,0.14074 1.926688,-0.29641 0.534512,-0.21402 0.88704,-0.42116 0.352528,-0.20713 0.627712,-0.40969 l -0.965381,-2.41099 -1.785499,0.71492 z m 12.724595,-0.61061 -1.163733,0.54797 -7.328507,-4.57875 -0.04433,0.0209 q 0.204824,0.37747 0.50945,0.93814 0.304626,0.56067 0.591659,1.17024 l 2.082294,4.42219 -0.919903,0.43316 -3.72621,-7.91339 1.152649,-0.54275 7.306987,4.5618 0.04433,-0.0209 q -0.09458,-0.17211 -0.283751,-0.51633 -0.178084,-0.34945 -0.398564,-0.76017 -0.209397,-0.41594 -0.376398,-0.7706 l -2.103169,-4.46652 0.930986,-0.43838 z"
       id="text1"
       inkscape:highlight-color="#000000"
       aria-label="OFFICIAL RAILWAYS CLOCK DESIGN" />
  </g>
  <g
     inkscape:groupmode="layer"
     id="layer1"
     style="display:inline"
     inkscape:label="layer1"
     transform="translate(-1798.1356,76.7415)" />
  <g
     inkscape:groupmode="layer"
     id="layer2"
     style="display:none"
     inkscape:label="glow"
     transform="translate(-1798.1356,76.7415)" />
  <g
     transform="translate(-1028.03,408.47464)"
     style="display:none"
     inkscape:label="box"
     id="layer4" />
  <g
     transform="translate(-1028.03,408.47464)"
     style="display:none"
     inkscape:label="zip_app"
     id="layer5" />
  <path
     fill-rule="evenodd"
     clip-rule="evenodd"
     d="m 104.39737,113.97298 -7.732146,-0.0866 c -0.192305,-0.002 -0.344008,-0.16661 -0.339806,-0.36499 l 1.143453,-91.610943 c 0.0045,-0.188893 0.411649,-0.350127 0.83372,-0.341923 l 5.342579,0.02069 c 0.19689,-0.01074 0.42472,0.08573 0.42571,0.289399 l 0.78916,91.777177 c 1.8e-4,0.20112 -0.15952,0.36364 -0.35439,0.36117"
     fill="#000000"
     fill-opacity="0.3"
     id="MinuteHandShadow"
     sodipodi:nodetypes="ccccccccc"
     inkscape:label="sombra minutero"
     style="display:inline;stroke-width:0.329144"
     inkscape:transform-center-x="-0.26507765"
     inkscape:transform-center-y="-32.353813" />
  <path
     fill-rule="evenodd"
     clip-rule="evenodd"
     d="m 104.37122,113.29368 -7.216221,-0.0412 c -0.185926,-0.001 -0.333482,-0.1196 -0.330588,-0.26422 l 1.128372,-66.840413 c 0.0036,-0.137848 0.11037,-0.284881 0.287062,-0.292425 l 5.173295,0.02722 c 0.19022,-0.0072 0.35033,0.107558 0.3525,0.255838 l 0.94594,66.89005 c 0.003,0.14666 -0.15204,0.26594 -0.34036,0.2652"
     fill="#000000"
     fill-opacity="0.3"
     id="HourHandShadow"
     sodipodi:nodetypes="ccccccccc"
     style="display:inline;stroke-width:0.276279"
     inkscape:label="sombra horas"
     inkscape:transform-center-x="-0.24015944"
     inkscape:transform-center-y="-20.245846" />
  <g
     id="SecondHandShadow"
     inkscape:label="Sombra secundero"
     transform="matrix(-0.33751776,-5.8143986e-4,5.8143986e-4,-0.33751776,229.88766,210.11221)"
     style="display:inline;fill:#000000;fill-opacity:0.3"
     inkscape:transform-center-x="-0.34864483"
     inkscape:transform-center-y="-23.731035">
    <circle
       style="fill:#000000;fill-opacity:0.3;stroke:none;stroke-width:20;stroke-dasharray:none;stroke-opacity:1"
       id="circle72"
       cx="384.08578"
       cy="504.67004"
       r="20" />
    <rect
       style="fill:#000000;fill-opacity:0.3;stroke:none;stroke-width:19.0821;stroke-dasharray:none;stroke-opacity:1"
       id="rect72"
       width="6.0870852"
       height="230.34552"
       x="381.866"
       y="269.18707"
       transform="matrix(0.99999842,-0.00177825,-0.00153083,0.99999883,0,0)" />
    <g
       id="g75"
       transform="translate(-83.181262,-0.04124381)"
       style="fill:#000000;fill-opacity:0.3">
      <circle
         style="fill:#000000;fill-opacity:0.3;stroke:none;stroke-width:10;stroke-dasharray:none;stroke-opacity:1"
         id="circle73"
         cx="467.67676"
         cy="326.26263"
         r="10" />
      <circle
         style="fill:#000000;fill-opacity:0.3;stroke:none;stroke-width:1.80973;stroke-dasharray:none;stroke-opacity:1"
         id="circle74"
         cx="467.67676"
         cy="326.26263"
         r="1.8097228" />
      <circle
         style="fill:#000000;fill-opacity:0.3;stroke:none;stroke-width:1.04323;stroke-dasharray:none;stroke-opacity:1"
         id="circle75"
         cx="467.67676"
         cy="326.26263"
         r="1.0432283" />
    </g>
  </g>
  <path
     fill-rule="evenodd"
     clip-rule="evenodd"
     d="m 103.78189,114.33649 -7.466814,-0.0592 c -0.192373,-0.002 -0.345215,-0.16577 -0.342405,-0.36633 l 0.819784,-92.629405 c 0.0037,-0.190868 0.176557,-0.338615 0.359398,-0.349043 l 5.552337,-0.01653 c 0.19682,-0.01297 0.36265,0.148804 0.36506,0.354699 l 1.06451,92.698639 c 0.001,0.20319 -0.15693,0.36852 -0.35187,0.36742"
     fill="#000000"
     id="MinuteHand"
     sodipodi:nodetypes="ccccccccc"
     inkscape:label="minutero"
     style="display:inline;stroke-width:0.330838"
     inkscape:transform-center-x="0.12382166"
     inkscape:transform-center-y="-32.335527" />
  <path
     fill-rule="evenodd"
     clip-rule="evenodd"
     d="m 103.93047,113.338 -7.21635,0.0142 c -0.18589,2.9e-4 -0.334166,-0.11709 -0.332142,-0.26223 l 0.926127,-66.746872 c 0.0021,-0.138138 0.109091,-0.294822 0.285728,-0.303786 l 5.172947,-0.0033 c 0.19015,-0.01076 0.34109,0.149434 0.34414,0.297886 l 1.15833,66.737612 c 0.003,0.14696 -0.15029,0.26764 -0.33879,0.26835"
     fill="#000000"
     id="HourHand"
     sodipodi:nodetypes="ccccccccc"
     style="display:inline;stroke-width:0.276554"
     inkscape:label="horas"
     inkscape:transform-center-x="-0.12346434"
     inkscape:transform-center-y="-20.221867" />
  <g
     id="SecondHand"
     inkscape:label="secundero"
     transform="matrix(-0.33628668,8.6176988e-4,-8.6176988e-4,-0.33628668,229.80208,209.47873)"
     style="display:inline"
     inkscape:transform-center-y="-23.764755"
     inkscape:transform-center-x="0.10125775">
    <circle
       style="display:inline;fill:#ff0000;fill-opacity:1;stroke:none;stroke-width:20;stroke-dasharray:none;stroke-opacity:1"
       id="path67"
       cx="384.2923"
       cy="505.77551"
       r="20" />
    <rect
       style="display:inline;fill:#ff0000;fill-opacity:1;stroke:none;stroke-width:19.2171;stroke-dasharray:none;stroke-opacity:1"
       id="rect67"
       width="6.0870986"
       height="233.61664"
       x="381.90698"
       y="269.00562"
       transform="matrix(0.99999827,-0.00185969,-0.00160288,0.99999872,0,0)" />
    <g
       id="g69"
       transform="translate(-83.179042,0.07060669)"
       style="display:inline">
      <circle
         style="fill:#ff0000;fill-opacity:1;stroke:none;stroke-width:10;stroke-dasharray:none;stroke-opacity:1"
         id="circle67"
         cx="467.67676"
         cy="326.26263"
         r="10" />
      <circle
         style="fill:#ffffff;fill-opacity:1;stroke:none;stroke-width:1.80973;stroke-dasharray:none;stroke-opacity:1"
         id="circle68"
         cx="467.67676"
         cy="326.26263"
         r="1.8097228" />
      <circle
         style="fill:#000000;fill-opacity:1;stroke:none;stroke-width:1.04323;stroke-dasharray:none;stroke-opacity:1"
         id="circle69"
         cx="467.67676"
         cy="326.26263"
         r="1.0432283" />
    </g>
  </g>
  <rect
     id="hint-hands-shadow-offset-to-south"
     style="display:none;opacity:1;fill:#008000;fill-opacity:1;stroke:none"
     width="4"
     height="2"
     x="100"
     y="70" />
  <path
     style="display:none;fill:#000000;fill-opacity:0;stroke:#7f7f7f;stroke-width:0.178"
     d="M -1.4218269,99.898736 H 203.36564"
     id="path1" />
  <path
     style="display:none;fill:#000000;fill-opacity:0;stroke:#7f7f7f;stroke-width:0.178"
     d="M 100.43997,197.09234 100.01815,-7.6946884"
     id="path27" />
  <circle
     style="display:none;fill:#000000;fill-opacity:0;stroke:#000000;stroke-width:0.178;stroke-opacity:1"
     id="hint-secondhand-rotation-center-offset"
     cx="0.0058961846"
     cy="0.0095126145"
     r="1" />
  <circle
     style="display:none;fill:#000000;fill-opacity:0;stroke:#000000;stroke-width:0.178;stroke-opacity:1"
     id="hint-minutehand-rotation-center-offset"
     cx="0.0058961846"
     cy="0.0095126145"
     r="1" />
  <circle
     style="display:none;fill:#000000;fill-opacity:0;stroke:#000000;stroke-width:0.178;stroke-opacity:1"
     id="hint-hourhand-rotation-center-offset"
     cx="0.0058961846"
     cy="0.0095126145"
     r="1" />
  <circle
     style="display:none;fill:#000000;fill-opacity:0;stroke:#929292;stroke-width:0.178;stroke-opacity:1"
     id="hint-secondhandshadow-rotation-center-offset"
     cx="0.2025713"
     cy="0.20875956"
     r="1" />
  <circle
     style="display:none;fill:#000000;fill-opacity:0;stroke:#929292;stroke-width:0.178;stroke-opacity:1"
     id="hint-minutehandshadow-rotation-center-offset"
     cx="0.2025713"
     cy="0.20875956"
     r="1" />
  <circle
     style="display:none;fill:#000000;fill-opacity:0;stroke:#929292;stroke-width:0.178;stroke-opacity:1"
     id="hint-hourhandshadow-rotation-center-offset"
     cx="0.2025713"
     cy="0.20875956"
     r="1" />
  <circle
     style="display:none;fill:#000000;fill-opacity:0.600759;stroke:#000000;stroke-width:0.133298;stroke-opacity:1"
     id="SecondHandCenter"
     cx="100.25619"
     cy="100.06536"
     r="0.74886507" />
  <ellipse
     style="display:none;fill:#000000;fill-opacity:0.600759;stroke:#000000;stroke-width:0.133298;stroke-opacity:1"
     id="MinuteHandCenter"
     cx="100.25619"
     cy="100.06536"
     rx="0.74900001"
     ry="0.74886507" />
  <ellipse
     style="display:none;fill:#000000;fill-opacity:0.600759;stroke:#000000;stroke-width:0.133298;stroke-opacity:1"
     id="HourHandCenter"
     cx="100.25619"
     cy="100.06536"
     rx="0.74900001"
     ry="0.74886507" />
</svg>
